<?xml version="1.0" encoding="UTF-8"?>
<!DOCTYPE svg PUBLIC "-//W3C//DTD SVG 1.1//EN" "http://www.w3.org/Graphics/SVG/1.1/DTD/svg11.dtd">
<!-- Creator: CorelDRAW X6 -->
<svg xmlns="http://www.w3.org/2000/svg" xml:space="preserve" width="8.5in" height="11in" version="1.1" style="shape-rendering:geometricPrecision; text-rendering:geometricPrecision; image-rendering:optimizeQuality; fill-rule:evenodd; clip-rule:evenodd"
viewBox="0 0 8500 11000"
 xmlns:xlink="http://www.w3.org/1999/xlink">
 <defs>
  <style type="text/css">
   <![CDATA[
    .fil2 {fill:#859838}
    .fil3 {fill:#95AA3F}
    .fil1 {fill:#859838;fill-rule:nonzero}
    .fil0 {fill:#D39371;fill-rule:nonzero}
   ]]>
  </style>
 </defs>
 <g id="Layer_x0020_1">
  <metadata id="CorelCorpID_0Corel-Layer"/>
  <path class="fil0" d="M3204 5195c33,0 61,28 61,61 0,33 -28,61 -61,61 -33,0 -61,-28 -61,-61 0,-33 28,-61 61,-61z"/>
  <path class="fil0" d="M3099 5160c4,0 8,4 8,8l0 577c0,5 -4,8 -8,8 -30,0 -60,0 -90,0 -5,0 -8,-4 -8,-8l0 -582c0,-5 5,-9 9,-8 30,2 60,4 90,6z"/>
  <path class="fil0" d="M3158 5322l92 6c4,0 8,4 8,8l0 0 0 409c0,5 -4,8 -8,8l-92 0c-5,0 -8,-4 -8,-8l0 -415c0,-5 4,-8 8,-8 0,0 1,0 1,0z"/>
  <path class="fil0" d="M3304 5290c0,-41 19,-82 50,-109 33,-28 77,-38 119,-27l11 3c4,1 7,5 6,9l-3 90c0,5 -4,8 -8,8l-42 0c-18,0 -25,15 -25,31l0 110 61 0c5,0 8,4 8,8l0 92c0,5 -4,8 -8,8l-61 0 0 323c0,5 -4,8 -8,8l-90 5c-5,0 -9,-4 -9,-8l0 -552z"/>
  <path class="fil0" d="M3512 5452c0,-17 4,-36 11,-53 21,-52 69,-84 125,-84 52,0 98,29 120,76 8,17 12,34 12,48l0 99c0,17 -6,30 -17,39 -11,10 -26,15 -42,15l-101 0 0 25c0,17 10,32 28,32l86 0c5,0 9,4 8,9l2 78c0,4 -3,8 -7,9l-89 13c-5,1 -9,1 -14,1 -30,0 -58,-14 -79,-35 -27,-26 -42,-63 -42,-101l0 -173zm134 -28c-14,0 -27,12 -27,27l0 34 53 0 0 -34c0,-14 -12,-27 -27,-27z"/>
  <path class="fil0" d="M3908 5332c16,-4 32,-6 48,-6 36,0 69,13 93,41 22,25 31,58 31,91l0 287c0,5 -4,8 -8,8l-58 0c-5,0 -8,-4 -8,-8l0 -289c0,-31 -21,-49 -52,-49l-46 0 0 337c0,5 -4,8 -8,8 -19,0 -38,0 -58,0 -5,0 -8,-4 -8,-8l0 -579c0,-5 4,-8 8,-8l58 0c5,0 8,4 8,8l0 166z"/>
  <path class="fil0" d="M4801 5745c0,5 -4,8 -8,8 -19,0 -38,0 -58,0 -5,0 -8,-4 -8,-8l0 -579c0,-5 4,-8 8,-8l58 0c5,0 8,4 8,8l0 338 101 -167c2,-3 4,-4 7,-4l67 0c7,0 11,7 7,13l-109 184 118 211c3,6 -1,12 -7,12l-65 0c-3,0 -6,-2 -8,-5l-112 -194 0 191z"/>
  <path class="fil0" d="M5494 5338c4,1 6,5 6,8l-2 48c0,4 -4,8 -8,8 0,0 -51,0 -55,0 -4,0 -9,0 -13,1 -13,2 -24,9 -32,18 -8,10 -13,23 -13,37l0 287c0,5 -4,8 -8,8l-58 0c-5,0 -8,-4 -8,-8l0 -290c0,-30 11,-59 29,-82 41,-52 106,-56 164,-35z"/>
  <path class="fil0" d="M5198 5684c4,0 8,3 8,8l3 46c0,4 -3,8 -7,9l-76 11c-5,1 -11,1 -16,1 -29,0 -55,-12 -75,-33 -23,-24 -35,-57 -35,-90l0 -189c0,-63 57,-120 120,-120 67,0 127,52 127,121l0 94c0,23 -17,40 -40,40l-133 0 0 44c0,18 5,34 14,45 8,10 21,15 37,15l73 0zm-75 -281c-27,0 -49,22 -49,49l0 54 98 0 0 -54c0,-26 -23,-49 -49,-49z"/>
  <path class="fil0" d="M4552 5327c64,0 123,53 123,118l0 14c0,5 -4,8 -8,8l-58 2c-5,0 -8,-4 -9,-8l0 -14c-1,-24 -24,-43 -48,-43 -26,0 -49,23 -49,49l0 182c0,28 22,50 50,50 18,0 44,-14 46,-34l2 -13c1,-5 5,-8 9,-7l58 3c5,0 8,4 8,9 0,5 -1,11 -2,16 -8,58 -64,102 -122,102 -66,0 -123,-54 -123,-121l0 -189c0,-68 55,-123 123,-123z"/>
  <path class="fil0" d="M4212 5330c47,-9 96,2 129,40 20,23 32,54 32,87l0 174c0,70 -49,125 -119,127 -66,2 -128,-53 -128,-120l0 -40c0,-36 13,-66 35,-87 22,-22 54,-33 91,-33 16,0 32,1 47,4l0 -38c0,-12 -3,-25 -12,-33 -9,-9 -23,-11 -35,-11l-79 5c-5,0 -9,-3 -9,-8l-2 -45c0,-4 2,-7 5,-8 -1,-2 42,-13 46,-13zm86 212l-43 0c-17,0 -31,6 -40,15 -10,10 -15,24 -15,42 0,10 0,19 0,29 1,28 18,55 49,55 1,0 2,0 2,0 27,-1 47,-23 47,-50l0 -91z"/>
  <path class="fil1" d="M3204 5203c29,0 53,24 53,53 0,29 -24,53 -53,53 -29,0 -53,-24 -53,-53 0,-29 24,-53 53,-53z"/>
  <path class="fil1" d="M3099 5168l0 577c-30,0 -60,0 -90,0l0 -582c30,2 60,4 90,6z"/>
  <polygon class="fil2" points="3157,5330 3249,5336 3249,5745 3157,5745 "/>
  <path class="fil1" d="M3312 5290c0,-39 18,-77 47,-103 31,-27 72,-36 111,-25l11 3c-1,30 -2,60 -3,90l-42 0c-23,0 -34,19 -34,40l0 119 69 0c0,31 0,61 0,92l-69 0 0 331 -90 5 0 -552z"/>
  <path class="fil1" d="M3521 5452c0,-31 13,-67 38,-92 21,-21 51,-36 89,-36 36,0 64,13 84,32 26,24 39,58 39,83l0 99c0,29 -23,46 -50,46l-109 0 0 33c0,21 13,41 37,41l86 0c1,26 2,52 3,79l-89 13c-4,1 -9,1 -13,1 -27,0 -53,-12 -73,-32 -25,-25 -40,-59 -40,-95l0 -173zm126 -37c-19,0 -35,16 -35,35l0 42 70 0 0 -42c0,-19 -16,-35 -35,-35z"/>
  <path class="fil1" d="M3900 5343c18,-5 38,-8 57,-8 34,0 64,12 87,38 21,23 29,54 29,85l0 287c-19,0 -38,0 -58,0l0 -289c0,-16 -5,-31 -16,-42 -10,-9 -24,-15 -44,-15l-54 0 0 346c-19,0 -38,0 -58,0l0 -579c19,0 38,0 58,0l0 177z"/>
  <path class="fil1" d="M4792 5745c-19,0 -38,0 -58,0l0 -579c19,0 38,0 58,0 0,193 0,386 0,579zm116 -404l67 0 -112 189 121 215 -65 0 -116 -201c-9,-15 -8,-16 1,-31l104 -172z"/>
  <path class="fil1" d="M5405 5337c30,-6 59,-1 87,9 -1,16 -1,32 -2,48l-14 0c-3,0 -30,0 -41,0 -5,0 -10,0 -15,1 -30,5 -52,32 -52,63l0 287c-19,0 -38,0 -58,0l0 -290c0,-57 39,-107 94,-119z"/>
  <path class="fil1" d="M5126 5693l73 0c1,15 2,31 3,46l-76 11c-5,1 -10,1 -15,1 -28,0 -52,-12 -69,-30 -21,-22 -33,-54 -33,-84l0 -189c0,-59 53,-112 112,-112 63,0 119,47 119,112l0 94c0,19 -12,31 -32,31l-141 0 0 52c0,38 20,68 60,68zm-2 -298c-31,0 -57,26 -57,57l0 62 115 0 0 -62c0,-31 -26,-57 -57,-57z"/>
  <path class="fil1" d="M4552 5335c59,0 115,49 115,110l0 14c-19,1 -39,1 -58,2l0 -14c-1,-29 -28,-51 -56,-51 -31,0 -57,26 -57,57l0 182c0,33 25,58 58,58 22,0 51,-18 54,-41l2 -13c20,1 39,2 59,3l-2 15c-7,54 -60,95 -114,95l0 0c-62,0 -115,-50 -115,-113l0 -189c0,-64 51,-115 115,-115z"/>
  <path class="fil1" d="M4169 5351c29,-11 59,-19 91,-15 62,7 104,60 104,120l0 181c0,64 -55,113 -118,112 -59,-2 -113,-51 -113,-112l0 -40c0,-69 49,-112 117,-112 19,0 37,2 56,5l0 -48c0,-33 -21,-55 -56,-52l-79 5c-1,-15 -2,-30 -2,-45zm138 183l-52 0c-39,0 -63,27 -63,65l0 26c0,34 22,67 59,66 32,-1 56,-26 56,-58l0 -99z"/>
  <polygon class="fil3" points="3023,5178 3085,5182 3085,5731 3023,5731 "/>
  <polygon class="fil3" points="3172,5345 3234,5349 3234,5731 3172,5731 "/>
  <path class="fil3" d="M3204 5218c21,0 38,17 38,38 0,21 -17,38 -38,38 -21,0 -38,-17 -38,-38 0,-21 17,-38 38,-38z"/>
  <path class="fil3" d="M3326 5290c0,-68 62,-135 141,-114l-2 65 -29 0c-24,0 -48,16 -48,54l0 133 69 0 0 64 -69 0 0 332 -62 4 0 -537z"/>
  <path class="fil3" d="M3535 5452c0,-51 37,-114 113,-114 73,0 109,63 109,101l0 99c0,19 -12,32 -36,32l-124 0 0 48c0,39 29,55 51,55l72 0 2 52 -77 11c-55,8 -110,-47 -110,-112l0 -173zm111 -51l0 0c27,0 49,22 49,49l0 57 -99 0 0 -57c0,-27 22,-49 49,-49z"/>
  <path class="fil3" d="M3886 5364c20,-10 48,-14 71,-14 32,0 55,10 76,33 16,18 25,43 25,76l0 273 -29 0 0 -274c0,-37 -23,-71 -75,-71l-69 0 0 346 -29 0 0 -551 29 0 0 183z"/>
  <path class="fil3" d="M4917 5355l34 0 -103 174 113 201 -32 0 -110 -191c-6,-11 -6,-12 1,-23l98 -162zm-139 376l-29 0 0 -551 29 0c0,184 0,367 0,551z"/>
  <path class="fil3" d="M5477 5356c-42,-15 -93,-9 -124,26 -16,18 -28,41 -28,74l0 275 29 0 0 -273c0,-36 26,-78 76,-78l46 0 1 -24z"/>
  <path class="fil3" d="M5185 5707l-60 0c-38,0 -73,-27 -73,-83l0 -66 155 0c11,0 17,-5 17,-17l0 -94c0,-39 -31,-98 -104,-98 -51,0 -97,47 -97,98l0 189c0,53 40,108 100,99l63 -9 -1 -19zm-62 -327c39,0 72,32 72,72l0 76 -144 0 0 -76c0,-39 32,-72 72,-72z"/>
  <path class="fil3" d="M4552 5349c50,0 101,41 101,95l-30 1c-1,-37 -35,-65 -70,-65 -39,0 -72,32 -72,72l0 182c0,39 30,73 72,73 33,0 65,-27 69,-54l30 2c-6,42 -49,83 -99,83 -55,0 -101,-43 -101,-98l0 -189c0,-58 45,-101 101,-101z"/>
  <path class="fil3" d="M4184 5361l1 20c31,-2 40,-3 64,-4 46,-3 72,29 72,67l0 65c-22,-5 -44,-9 -70,-9 -59,0 -103,34 -103,98l0 40c0,54 48,97 101,97 55,0 101,-42 101,-97l0 -181c0,-33 -12,-61 -33,-80 -37,-34 -88,-32 -132,-16zm137 159l0 114c0,39 -30,73 -72,73 -33,0 -71,-24 -71,-80l0 -26c0,-50 32,-80 77,-80l66 0z"/>
 </g>
</svg>
