<svg width="301" height="50" viewBox="0 0 301 50" version="1.1" xmlns="http://www.w3.org/2000/svg" xmlns:xlink="http://www.w3.org/1999/xlink" xmlns:figma="http://www.figma.com/figma/ns">
<title>verge</title>
<desc>Created using Figma</desc>
<g id="Canvas" transform="translate(-6644 9)" figma:type="canvas">
<g id="verge" style="mix-blend-mode:normal;" figma:type="vector">
<use xlink:href="#path0_fill" transform="translate(6644.62 -9)" fill="#000000" fill-opacity="0.1" style="mix-blend-mode:normal;"/>
<use xlink:href="#path1_fill" transform="translate(6644.62 -9)" fill="#000000" fill-opacity="0.1" style="mix-blend-mode:normal;"/>
<use xlink:href="#path2_fill" transform="translate(6644.62 -9)" fill="#000000" fill-opacity="0.1" style="mix-blend-mode:normal;"/>
<use xlink:href="#path3_fill" transform="translate(6644.62 -9)" fill="#000000" fill-opacity="0.1" style="mix-blend-mode:normal;"/>
<use xlink:href="#path4_fill" transform="translate(6644.62 -9)" fill="#000000" fill-opacity="0.1" style="mix-blend-mode:normal;"/>
<use xlink:href="#path5_fill" transform="translate(6644.62 -9)" fill="#000000" fill-opacity="0.1" style="mix-blend-mode:normal;"/>
<use xlink:href="#path6_fill" transform="translate(6644.62 -9)" fill="#000000" fill-opacity="0.1" style="mix-blend-mode:normal;"/>
</g>
</g>
<defs>
<path id="path0_fill" d="M 267.844 18.8008L 267.844 38.6256C 267.844 40.2834 267.844 40.7899 267.82 44.1516C 264.047 47.3982 257.133 50 250.055 50C 235.781 50 224.766 38.3723 224.766 24.5802C 224.766 21.2875 225.398 17.9719 226.641 14.9096C 228.773 9.70585 232.805 5.33105 237.891 2.75224C 243.52 -0.103656 249.58 -0.0433942 255.708 0.0175979C 256.596 0.0264235 257.485 0.0352491 258.375 0.0352491L 262.148 0.0352491L 262.148 14.4491C 262.148 14.4491 253.875 14.426 250.383 14.426C 244.617 14.426 240.469 19.2614 240.469 24.7183C 240.469 30.1753 244.734 34.6422 250.5 34.6422C 251.906 34.6422 253.266 34.3428 253.898 33.7903L 253.898 29.8529L 245.625 29.8529L 245.625 18.8008L 267.844 18.8008Z"/>
<path id="path1_fill" d="M 0 13.551L 0 0.173423L 25.0313 0.173423L 25.0313 48.8257L 9.30469 48.8257L 9.30469 13.551L 0 13.551Z"/>
<path id="path2_fill" d="M 44.2266 18.6626L 51.5859 18.6626L 51.5859 0.173423L 67.3359 0.173423L 67.3359 48.8257L 51.5859 48.8257L 51.5859 30.4286L 44.2266 30.4286L 44.2266 48.8257L 28.5234 48.8257L 28.5234 0.173423L 47.9297 0.173423L 47.9297 13.5281L 44.2266 13.5281L 44.2266 18.6626Z"/>
<path id="path3_fill" d="M 99.9141 48.8257L 70.7812 48.8257L 70.7812 0.173423L 99.9141 0.173423L 99.9141 13.551L 85.8047 13.551L 85.8047 18.6626L 94.7812 18.6626L 94.7812 29.7608L 85.8047 29.7608L 85.8047 35.425L 99.9141 35.425L 99.9141 48.8257Z"/>
<path id="path4_fill" fill-rule="evenodd" d="M 204.68 0.173423C 215.883 0.173423 223.781 6.13694 223.781 16.6365C 223.781 23.1987 221.484 27.6886 216.891 30.1523L 229.641 48.8027L 211.898 48.8027L 202.898 36.346L 202.898 48.8027L 187.172 48.8027L 187.172 0.173423L 204.68 0.173423ZM 202.852 12.9754L 202.852 22.0243C 205.43 22.0243 208.781 21.1264 208.781 17.5114C 208.781 17.3111 208.757 17.1107 208.734 16.928C 208.726 16.8587 208.717 16.7918 208.711 16.7285C 208.688 16.7055 208.688 16.6595 208.688 16.6365C 208.656 16.5344 208.63 16.4323 208.604 16.3322C 208.571 16.2065 208.539 16.084 208.5 15.9687C 207.703 13.6201 205.031 12.9754 202.852 12.9754Z"/>
<path id="path5_fill" d="M 130.922 29.8069L 131.063 29.8069L 140.156 0.150375L 183.68 0.150375L 183.68 13.551L 169.57 13.551L 169.57 18.6626L 178.523 18.6626L 178.523 29.7378L 169.57 29.7378L 169.57 35.402L 183.68 35.402L 183.68 48.8027L 154.547 48.8027L 154.547 8.09408C 149.836 20.6198 141.211 43.599 141.211 43.599L 139.266 48.8027L 123.141 48.8027L 105.141 0.173423L 136.547 0.173423L 132.469 13.5741L 126.281 13.5741L 129.797 25.8005L 130.922 29.8069Z"/>
<path id="path6_fill" d="M 300 0.196414L 300 13.5741L 285.867 13.5741L 285.867 18.7087L 294.844 18.7087L 294.844 29.7608L 285.867 29.7608L 285.867 35.425L 300 35.425L 300 48.8257L 270.867 48.8257L 270.867 0.196414L 300 0.196414Z"/>
</defs>
</svg>
